# xmcd
#
# Track frame offsets: 
#        150
#        9697
#        23755
#        37601
#        58416
#        70543
#        88136
#        105216
#        129501
#        148878
#        158699
#
# Disc length: 2328 seconds
#
# Revision: 0
# Processed by: cddbd v1.5.2PL0 Copyright (c) Steve Scherf et al.
# Submitted via: ExactAudioCopy v1.3
#
DISCID=8609160b
DTITLE=Ronnie Wood With His Wild Five - Mad Lad: A Live Tribute To Chu
DTITLE=ck
DYEAR=2019
DGENRE=Blues
TTITLE0=Tribute to Chuck Berry
TTITLE1=Talking About You
TTITLE2=Mad Lad
TTITLE3=Wee Wee Hours
TTITLE4=Almost Grown
TTITLE5=Back In The USA
TTITLE6=Blue Feeling
TTITLE7=Worried Life Blues
TTITLE8=Little Queenie
TTITLE9=Rock N Roll Music
TTITLE10=Johnny B Goode
EXTD=
EXTT0=
EXTT1=
EXTT2=
EXTT3=
EXTT4=
EXTT5=
EXTT6=
EXTT7=
EXTT8=
EXTT9=
EXTT10=
PLAYORDER=
